<svg width="488" height="153" viewBox="0 0 488 153" fill="none" xmlns="http://www.w3.org/2000/svg">
<path d="M13.5557 39.5567L41.0654 61.5989L81.1793 36.8145L53.3406 13.5645L13.5557 39.5567Z" fill="#007EE5"/>
<path d="M53.3406 109.635L81.1793 86.3832L41.0654 61.5989L13.5557 83.6424L53.3406 109.635Z" fill="#007EE5"/>
<path d="M109.018 109.635L148.801 83.6424L121.293 61.5989L81.1792 86.3832L109.018 109.635Z" fill="#007EE5"/>
<path d="M109.018 13.5645L81.1792 36.8145L121.293 61.5989L148.801 39.5567L109.018 13.5645Z" fill="#007EE5"/>
<path d="M121.128 115.513V106.763L109.182 114.568L81.26 91.3853L53.3407 114.568L41.3945 106.763V115.513L81.26 139.436L121.128 115.513Z" fill="#007EE5"/>
<path d="M169.058 109.588H187.451C192.811 109.588 200.378 109.588 206.582 104.759C214.151 98.987 218.039 87.231 218.039 74.1072C218.039 39.6789 196.279 39.5728 185.559 39.5728H169.058V109.588ZM184.405 51.6458H187.03C193.233 51.6458 201.748 52.3808 201.748 73.8976C201.748 96.7809 193.129 97.5171 187.03 97.5171H184.405V51.6458Z" fill="#007EE5"/>
<path d="M223.324 57.8382V109.587H237.722V87.2309C237.722 83.2406 237.722 71.275 248.336 71.275C248.864 71.275 249.493 71.275 250.752 71.4846V57.419C250.019 57.2094 249.286 57.1033 248.23 57.1033C239.824 57.1033 237.301 65.9223 236.04 70.3305V57.8395L223.324 57.8382Z" fill="#007EE5"/>
<path d="M273.839 56.6829C258.39 56.6829 252.715 67.4957 252.715 83.6612C252.715 100.351 258.809 110.637 273.736 110.637C288.871 110.637 294.862 100.247 294.862 83.6612C294.862 67.4957 289.188 56.6829 273.839 56.6829ZM273.839 66.7608C278.257 66.7608 279.936 70.3292 279.936 83.6612C279.936 97.5172 278.044 100.563 273.839 100.563C269.53 100.563 267.64 97.4124 267.64 83.6612C267.64 70.9607 269.111 66.7608 273.736 66.7608H273.839Z" fill="#007EE5"/>
<path d="M299.133 57.8383V127.118H313.323V105.811C314.9 107.489 317.527 110.321 323.203 110.321C339.704 110.321 340.756 90.3776 340.756 83.0311C340.756 74.3196 339.075 66.2355 334.028 61.0924C331.508 58.5732 327.618 57.1021 324.15 57.1021C317.107 57.1021 314.269 62.2451 312.481 65.6053V57.8383H299.133ZM313.323 78.6216C313.323 74.0038 313.323 66.6573 319.839 66.6573C325.41 66.6573 325.831 73.899 325.831 83.0311C325.831 93.9487 325.307 100.351 319.419 100.351C313.325 100.351 313.325 95.9412 313.325 88.4886L313.323 78.6216Z" fill="#007EE5"/>
<path d="M345.043 39.5728V109.588H353.559C354.714 105.914 355.241 104.865 356.293 102.87C357.552 105.494 359.97 110.637 368.277 110.637C371.009 110.637 373.846 110.113 376.685 108.644C386.146 103.711 386.777 88.1755 386.777 83.3454C386.777 70.8558 382.782 57.102 370.061 57.102C363.862 57.102 361.026 60.4622 359.236 62.6683V39.5728H345.043ZM359.235 76.1037C359.235 73.4798 359.235 70.8558 360.92 68.8593C361.97 67.4956 363.651 66.6573 365.543 66.6573C369.642 66.6573 371.848 70.1209 371.848 83.766C371.848 97.0979 369.854 100.665 365.331 100.665C359.233 100.665 359.233 93.9487 359.233 88.0693V76.1037H359.235Z" fill="#007EE5"/>
<path d="M411.521 56.6829C396.067 56.6829 390.392 67.4957 390.392 83.6612C390.392 100.351 396.49 110.637 411.415 110.637C426.55 110.637 432.541 100.247 432.541 83.6612C432.541 67.4957 426.864 56.6829 411.521 56.6829ZM411.521 66.7608C415.932 66.7608 417.615 70.3292 417.615 83.6612C417.615 97.5172 415.725 100.563 411.521 100.563C407.209 100.563 405.315 97.4124 405.315 83.6612C405.315 70.9607 406.789 66.7608 411.415 66.7608H411.521Z" fill="#007EE5"/>
<path d="M431.981 57.8381L445.332 83.1371L429.986 109.589H442.491L451.216 94.0547L458.783 109.589H474.445L458.993 80.6179L472.339 57.8395H459.836L453.212 69.8051L447.643 57.8395L431.981 57.8381Z" fill="#007EE5"/>
</svg>
