<svg width="578" height="88" viewBox="0 0 578 88" fill="none" xmlns="http://www.w3.org/2000/svg">
<g clip-path="url(#clip0_3_6)">
<path d="M86.6573 44.3445C86.6573 68.3174 67.2584 87.7521 43.3279 87.7521C19.3974 87.7521 0 68.3232 0 44.3445C0 20.3658 19.3989 0.938361 43.3279 0.938361C67.2569 0.938361 86.6573 20.3717 86.6573 44.3445ZM134.19 44.3445C134.19 66.912 124.49 85.2049 112.526 85.2049C100.561 85.2049 90.8608 66.9062 90.8608 44.3445C90.8608 21.7829 100.561 3.48409 112.526 3.48409C124.49 3.48409 134.19 21.7829 134.19 44.3445ZM153.632 44.3445C153.632 64.5639 150.22 80.9537 146.012 80.9537C141.804 80.9537 138.392 64.5581 138.392 44.3445C138.392 24.131 141.804 7.73526 146.013 7.73526C150.223 7.73526 153.632 24.1266 153.632 44.3445ZM273.214 4.70205L273.334 4.6757V3.74612H248.693L225.813 57.2517L202.933 3.74612H176.379V4.6757L176.499 4.70205C180.996 5.71214 183.28 7.2185 183.28 12.651V76.2502C183.28 81.6828 180.987 83.1891 176.49 84.1992L176.371 84.2256V85.1581H194.386V84.2285L194.267 84.2021C189.77 83.1921 187.486 81.6857 187.486 76.2532V16.3401L216.878 85.1581H218.545L248.793 14.4209V77.8239C248.408 82.1146 246.145 83.4394 242.072 84.3544L241.952 84.3822V85.3045H273.334V84.3822L273.214 84.3544C269.137 83.4394 266.819 82.1146 266.434 77.8239L266.413 12.651H266.434C266.434 7.2185 268.717 5.71214 273.214 4.70205ZM287.548 46.8331C288.062 35.4059 292.186 27.1583 299.107 27.0163C301.242 27.0514 303.032 27.7483 304.424 29.0892C307.381 31.9453 308.772 37.9136 308.557 46.8331H287.548ZM287.238 50.0537H324.02V49.9C323.916 41.162 321.372 34.3651 316.466 29.6982C312.226 25.6651 305.948 23.4458 299.354 23.4458H299.207C295.785 23.4458 291.587 24.2715 288.6 25.7676C285.2 27.334 282.202 29.6762 279.706 32.7504C275.69 37.7028 273.256 44.3957 272.665 51.9173C272.646 52.1427 272.629 52.3681 272.613 52.5936C272.597 52.819 272.587 53.021 272.577 53.2362C272.524 54.2938 272.507 55.3527 272.524 56.4114C272.922 73.4469 282.171 87.0611 298.598 87.0611C313.016 87.0611 321.413 76.5738 323.507 62.4969L322.449 62.1265C318.771 69.692 312.164 74.2769 304.646 73.7177C294.382 72.9535 286.52 62.5994 287.233 50.0566M365.607 73.1394C364.401 75.9867 361.884 77.5531 358.51 77.5531C355.136 77.5531 352.052 75.2489 349.862 71.0622C347.508 66.568 346.269 60.2147 346.269 52.6887C346.269 37.025 351.165 26.8933 358.744 26.8933C361.917 26.8933 364.416 28.4597 365.607 31.1928V73.1394ZM390.007 84.3061C385.51 83.2477 383.226 81.6711 383.226 75.9618V0L355.9 8.01047V8.99128L356.068 8.97811C359.837 8.67508 362.394 9.1933 363.879 10.5577C365.041 11.6263 365.607 13.2659 365.607 15.573V25.9872C362.914 24.2759 359.709 23.4429 355.82 23.4429C347.934 23.4429 340.727 26.7469 335.528 32.7475C330.11 39.0013 327.245 47.5475 327.245 57.4596C327.243 75.1626 336.002 87.0611 349.038 87.0611C356.664 87.0611 362.799 82.9037 365.607 75.8916V85.3045H390.126V84.3295L390.007 84.3061ZM413.443 10.3308C413.443 4.80306 409.255 0.633869 403.698 0.633869C398.167 0.633869 393.84 4.89382 393.84 10.3308C393.84 15.7677 398.171 20.0276 403.698 20.0276C409.255 20.0276 413.443 15.8584 413.443 10.3308ZM419.894 84.3061C415.396 83.2477 413.112 81.6711 413.112 75.9618H413.093V23.623L388.573 30.6277V31.5793L388.72 31.5925C394.025 32.0624 395.478 33.8805 395.478 40.0494V85.3045H420.019V84.3295L419.894 84.3061ZM482.725 84.3061C478.227 83.2477 475.944 81.6711 475.944 75.9618V23.623L452.597 30.3964V31.3509L452.736 31.3656C457.073 31.8194 458.326 33.7415 458.326 39.9382V73.0223C456.88 75.8696 454.167 77.5604 450.88 77.6746C445.55 77.6746 442.615 74.0924 442.615 67.5883V23.6244L418.094 30.6292V31.5793L418.241 31.5925C423.547 32.0609 425 33.8791 425 40.0494V68.0495C424.988 70.0041 425.159 71.9557 425.511 73.8787L425.952 75.7891C428.028 83.1906 433.468 87.0611 441.989 87.0611C449.207 87.0611 455.534 82.6153 458.321 75.6588V85.3206H482.841V84.3456L482.725 84.3061ZM577.98 85.3045V84.328L577.861 84.3002C572.981 83.1803 571.08 81.0694 571.08 76.7714V41.1693C571.08 30.0685 564.814 23.4429 554.318 23.4429C546.667 23.4429 540.215 27.8419 537.732 34.6945C535.759 27.4335 530.081 23.4429 521.686 23.4429C514.312 23.4429 508.533 27.3149 506.054 33.8556V23.6274L481.533 30.3452V31.3026L481.68 31.3158C486.922 31.7784 488.438 33.6492 488.438 39.66V85.3045H511.316V84.3295L511.196 84.3002C507.303 83.3897 506.046 81.7296 506.046 77.4697V36.6619C507.076 34.2685 509.152 31.4329 513.256 31.4329C518.352 31.4329 520.936 34.9463 520.936 41.8676V85.3045H543.82V84.3295L543.699 84.3002C539.806 83.3897 538.55 81.7296 538.55 77.4697V41.1649C538.56 39.8074 538.452 38.4517 538.226 37.1128C539.318 34.5115 541.513 31.4329 545.784 31.4329C550.953 31.4329 553.464 34.8452 553.464 41.8676V85.3045H577.98Z" fill="#3B4D9E"/>
</g>
<defs>
<clipPath id="clip0_3_6">
<rect width="578" height="88" fill="white"/>
</clipPath>
</defs>
</svg>
